<svg xmlns="http://www.w3.org/2000/svg" xmlns:xlink="http://www.w3.org/1999/xlink" id="svg" version="1.1" width="400" height="385.6115107913669" viewBox="0, 0, 400,385.6115107913669"><g id="svgg"><path id="path0" d="M267.800 23.144 C 267.800 24.098,267.876 24.489,267.967 24.012 C 268.059 23.534,268.059 22.753,267.967 22.276 C 267.876 21.798,267.800 22.189,267.800 23.144 M139.055 118.419 C 138.924 118.631,137.957 118.804,136.905 118.804 C 135.854 118.804,134.693 118.956,134.325 119.142 C 131.471 120.579,130.231 121.119,129.778 121.119 C 129.489 121.119,128.614 121.553,127.832 122.083 C 127.051 122.613,126.175 123.047,125.886 123.047 C 125.598 123.047,125.362 123.221,125.362 123.433 C 125.362 123.645,125.014 123.819,124.590 123.819 C 124.166 123.819,123.819 123.951,123.819 124.113 C 123.819 124.457,123.516 124.631,119.085 126.829 C 117.244 127.743,115.636 128.654,115.512 128.855 C 115.388 129.056,114.559 129.568,113.670 129.992 C 112.781 130.416,111.360 131.195,110.511 131.723 C 109.662 132.250,108.594 132.847,108.138 133.048 C 107.681 133.250,107.193 133.599,107.054 133.825 C 106.914 134.051,106.058 134.574,105.151 134.987 C 104.243 135.400,103.278 136.007,103.005 136.336 C 102.732 136.665,102.345 136.933,102.145 136.933 C 101.945 136.933,101.212 137.367,100.516 137.898 C 99.821 138.428,99.084 138.862,98.879 138.862 C 98.674 138.862,98.170 139.166,97.758 139.537 C 97.347 139.908,96.490 140.465,95.853 140.774 C 95.217 141.083,94.391 141.589,94.019 141.897 C 93.223 142.555,92.201 143.151,90.034 144.219 C 89.167 144.646,88.235 145.265,87.962 145.593 C 87.689 145.922,87.299 146.191,87.096 146.191 C 86.892 146.191,85.984 146.798,85.078 147.541 C 84.172 148.284,83.258 148.891,83.048 148.891 C 82.838 148.891,82.351 149.238,81.967 149.662 C 81.583 150.087,81.062 150.434,80.810 150.434 C 80.558 150.434,80.037 150.781,79.653 151.205 C 79.269 151.630,78.778 151.977,78.563 151.977 C 78.347 151.977,77.852 152.265,77.463 152.618 C 76.718 153.292,75.553 154.015,74.237 154.620 C 73.804 154.819,73.218 155.261,72.936 155.601 C 72.654 155.941,72.183 156.220,71.891 156.220 C 71.599 156.220,71.360 156.352,71.360 156.515 C 71.360 156.677,70.665 157.238,69.817 157.763 C 68.968 158.287,68.274 158.837,68.274 158.985 C 68.274 159.133,67.970 159.351,67.599 159.469 C 67.228 159.587,66.186 160.380,65.284 161.231 C 64.382 162.081,63.501 162.777,63.326 162.777 C 63.151 162.777,62.600 163.211,62.102 163.742 C 61.604 164.272,61.007 164.706,60.776 164.706 C 60.300 164.706,49.759 175.158,49.759 175.630 C 49.759 175.799,49.037 176.707,48.155 177.648 C 47.273 178.589,46.231 179.887,45.839 180.532 C 45.447 181.176,44.866 181.803,44.549 181.925 C 44.232 182.047,43.973 182.396,43.973 182.700 C 43.973 183.005,43.527 183.724,42.983 184.298 C 42.438 184.873,41.613 186.017,41.150 186.841 C 39.757 189.322,39.493 189.744,38.894 190.451 C 38.578 190.823,37.843 192.083,37.260 193.250 C 35.933 195.909,34.582 198.397,34.330 198.650 C 33.890 199.090,32.401 202.235,32.401 202.725 C 32.401 203.017,32.088 203.825,31.706 204.521 C 31.323 205.217,30.693 206.654,30.305 207.715 C 29.917 208.775,29.449 209.808,29.265 210.010 C 29.080 210.211,28.930 210.765,28.930 211.240 C 28.930 211.716,28.756 212.212,28.544 212.343 C 28.332 212.474,28.158 212.995,28.158 213.500 C 28.158 214.006,27.985 214.527,27.772 214.658 C 27.560 214.789,27.387 215.320,27.387 215.838 C 27.387 216.355,27.213 216.779,27.001 216.779 C 26.789 216.779,26.615 217.184,26.615 217.679 C 26.615 218.174,26.485 218.709,26.326 218.867 C 26.060 219.131,25.432 222.261,24.829 226.335 C 24.694 227.241,24.434 228.076,24.250 228.190 C 24.066 228.303,23.915 229.070,23.915 229.894 C 23.915 230.717,23.742 231.499,23.529 231.630 C 23.317 231.761,23.144 232.889,23.144 234.137 C 23.144 235.385,22.970 236.513,22.758 236.644 C 22.546 236.775,22.372 238.251,22.372 239.923 C 22.372 241.595,22.199 243.070,21.986 243.202 C 21.467 243.522,21.467 257.153,21.986 257.473 C 22.205 257.609,22.372 259.527,22.372 261.909 C 22.372 264.292,22.539 266.210,22.758 266.345 C 22.970 266.476,23.144 267.580,23.144 268.798 C 23.144 270.016,23.299 271.177,23.490 271.379 C 23.680 271.581,23.927 272.440,24.037 273.288 C 24.148 274.137,24.409 275.526,24.617 276.374 C 24.826 277.223,25.199 278.959,25.448 280.231 C 25.696 281.504,26.060 282.847,26.257 283.216 C 26.454 283.584,26.615 284.398,26.615 285.025 C 26.615 285.652,26.789 286.272,27.001 286.403 C 27.213 286.534,27.387 287.065,27.387 287.583 C 27.387 288.101,27.560 288.525,27.772 288.525 C 27.985 288.525,28.158 288.948,28.158 289.466 C 28.158 289.984,28.332 290.515,28.544 290.646 C 28.756 290.777,28.930 291.273,28.930 291.749 C 28.930 292.224,29.075 292.778,29.254 292.980 C 29.432 293.181,29.800 293.954,30.073 294.696 C 30.851 296.820,37.472 310.125,37.749 310.125 C 37.887 310.125,38.240 310.689,38.535 311.379 C 38.830 312.068,39.334 312.938,39.655 313.310 C 40.278 314.032,41.010 315.229,41.601 316.490 C 41.800 316.914,42.415 317.682,42.968 318.196 C 43.521 318.711,43.973 319.362,43.973 319.643 C 43.973 319.924,44.103 320.155,44.262 320.157 C 44.421 320.158,44.982 320.809,45.508 321.603 C 46.034 322.398,47.336 323.967,48.401 325.091 C 49.466 326.215,50.390 327.283,50.453 327.464 C 50.650 328.022,60.924 338.217,62.819 339.734 C 63.804 340.522,65.025 341.646,65.533 342.232 C 66.041 342.819,66.658 343.298,66.904 343.298 C 67.150 343.298,67.940 343.905,68.660 344.648 C 69.379 345.391,70.164 345.998,70.404 345.998 C 70.643 345.998,71.258 346.443,71.769 346.987 C 72.280 347.531,73.308 348.261,74.054 348.609 C 75.631 349.345,80.364 352.553,80.553 353.013 C 80.624 353.186,81.000 353.327,81.389 353.327 C 81.778 353.327,82.154 353.466,82.224 353.636 C 82.341 353.916,86.194 355.842,89.392 357.219 C 90.082 357.515,90.646 357.889,90.646 358.050 C 90.646 358.210,90.993 358.341,91.418 358.341 C 91.842 358.341,92.189 358.473,92.189 358.633 C 92.189 358.988,93.469 359.568,97.016 360.819 C 101.589 362.432,102.580 362.818,102.854 363.091 C 102.999 363.237,103.513 363.356,103.995 363.356 C 104.478 363.356,104.980 363.529,105.111 363.742 C 105.242 363.954,105.947 364.127,106.677 364.127 C 107.407 364.127,108.004 364.301,108.004 364.513 C 108.004 364.725,108.353 364.899,108.781 364.899 C 109.208 364.899,109.859 365.053,110.227 365.241 C 111.143 365.710,115.053 366.479,117.750 366.721 C 118.973 366.831,120.068 367.074,120.183 367.260 C 120.298 367.446,121.414 367.599,122.662 367.599 C 123.909 367.599,125.038 367.772,125.169 367.985 C 125.304 368.204,127.230 368.370,129.627 368.370 C 132.184 368.370,133.848 368.522,133.848 368.756 C 133.848 368.995,135.962 369.142,139.418 369.142 C 142.715 369.142,145.085 368.984,145.227 368.756 C 145.360 368.541,147.152 368.370,149.277 368.370 C 151.402 368.370,153.194 368.200,153.327 367.985 C 153.458 367.772,154.735 367.599,156.165 367.599 C 157.596 367.599,158.931 367.443,159.132 367.253 C 159.334 367.062,160.193 366.819,161.041 366.713 C 164.142 366.325,168.001 365.580,168.654 365.244 C 169.023 365.054,169.663 364.899,170.078 364.899 C 170.493 364.899,170.939 364.725,171.070 364.513 C 171.202 364.301,171.896 364.127,172.613 364.127 C 173.331 364.127,174.025 363.954,174.156 363.742 C 174.287 363.529,174.734 363.356,175.149 363.356 C 175.877 363.356,176.252 363.217,178.105 362.259 C 178.579 362.014,179.197 361.813,179.479 361.813 C 179.760 361.813,180.685 361.477,181.535 361.066 C 182.385 360.656,183.589 360.208,184.211 360.070 C 186.105 359.652,204.092 350.561,203.945 350.096 C 203.869 349.858,203.428 349.491,202.964 349.282 C 202.501 349.072,202.122 348.769,202.122 348.607 C 202.122 348.445,201.774 348.312,201.350 348.312 C 200.926 348.312,200.579 348.139,200.579 347.927 C 200.579 347.715,200.417 347.541,200.220 347.541 C 199.634 347.541,194.849 345.244,194.602 344.844 C 194.477 344.641,193.731 344.173,192.944 343.803 C 191.166 342.966,187.463 340.170,186.704 339.090 C 186.392 338.647,185.909 338.284,185.631 338.284 C 185.353 338.284,185.010 337.980,184.869 337.608 C 184.727 337.237,184.212 336.617,183.723 336.230 C 183.235 335.844,182.835 335.301,182.835 335.024 C 182.835 334.747,182.582 334.311,182.274 334.055 C 181.579 333.478,178.978 328.274,178.978 327.460 C 178.978 327.133,178.824 326.701,178.636 326.500 C 176.990 324.738,176.524 314.298,177.862 309.161 C 178.304 307.464,178.756 305.596,178.866 305.010 C 178.976 304.424,179.220 303.849,179.408 303.733 C 179.596 303.617,179.749 303.022,179.749 302.411 C 179.749 301.799,179.923 301.192,180.135 301.061 C 180.347 300.930,180.521 300.260,180.521 299.572 C 180.521 298.885,180.720 298.123,180.964 297.879 C 181.877 296.966,176.530 290.839,174.821 290.839 C 174.377 290.839,172.035 288.382,172.035 287.916 C 172.035 287.708,171.688 287.287,171.263 286.982 C 170.839 286.676,170.492 286.117,170.492 285.739 C 170.492 285.362,170.361 285.053,170.200 285.053 C 170.040 285.053,169.667 284.489,169.373 283.799 C 169.078 283.110,168.607 282.278,168.326 281.950 C 168.045 281.622,167.458 280.147,167.021 278.671 C 166.584 277.196,166.058 275.687,165.852 275.319 C 165.646 274.950,165.477 273.962,165.477 273.123 C 165.477 272.285,165.304 271.491,165.092 271.360 C 164.857 271.215,164.706 268.334,164.706 264.008 C 164.706 259.523,164.848 256.895,165.092 256.895 C 165.304 256.895,165.477 256.372,165.477 255.732 C 165.477 255.093,165.638 254.269,165.834 253.900 C 166.345 252.941,167.408 248.044,167.407 246.655 C 167.406 245.495,165.041 242.623,164.087 242.623 C 163.870 242.623,163.194 242.102,162.584 241.466 C 161.975 240.829,161.280 240.309,161.041 240.309 C 160.548 240.309,158.656 238.426,158.003 237.286 C 156.109 233.977,155.214 232.595,154.966 232.594 C 154.807 232.594,154.677 232.247,154.677 231.823 C 154.677 231.398,154.503 231.051,154.291 231.051 C 154.079 231.051,153.905 230.627,153.905 230.110 C 153.905 229.592,153.732 229.061,153.520 228.930 C 153.308 228.798,153.134 228.381,153.134 228.002 C 153.134 227.623,152.850 226.743,152.503 226.047 C 149.670 220.369,150.023 207.325,153.184 200.831 C 153.581 200.016,153.905 199.032,153.905 198.646 C 153.905 198.259,154.122 197.870,154.388 197.781 C 155.461 197.420,148.894 189.392,147.526 189.392 C 147.295 189.392,146.625 188.890,146.037 188.276 C 144.824 187.010,142.090 186.095,140.735 186.501 C 139.321 186.924,135.391 190.957,135.391 191.984 C 135.391 192.468,135.217 192.864,135.005 192.864 C 134.782 192.864,134.619 194.086,134.619 195.757 C 134.619 197.428,134.782 198.650,135.005 198.650 C 135.217 198.650,135.391 199.396,135.391 200.309 C 135.391 201.221,135.548 202.132,135.741 202.334 C 137.267 203.931,137.535 222.562,136.173 232.401 C 135.967 233.886,135.690 235.882,135.555 236.837 C 135.421 237.792,135.156 238.738,134.965 238.939 C 134.775 239.141,134.619 239.955,134.619 240.749 C 134.619 241.542,134.446 242.299,134.233 242.430 C 134.021 242.561,133.848 243.082,133.848 243.587 C 133.848 244.093,133.697 244.599,133.513 244.713 C 133.329 244.827,133.092 245.689,132.986 246.629 C 132.880 247.570,132.423 249.104,131.970 250.039 C 131.518 250.973,131.148 251.926,131.148 252.156 C 131.148 252.386,130.627 253.563,129.990 254.773 C 129.354 255.983,128.833 257.303,128.833 257.706 C 128.833 258.108,128.660 258.438,128.447 258.438 C 128.235 258.438,128.062 258.785,128.062 259.209 C 128.062 259.634,127.929 259.981,127.767 259.981 C 127.460 259.981,127.272 260.294,125.845 263.190 C 125.368 264.157,124.803 265.056,124.590 265.188 C 124.377 265.320,123.864 266.170,123.451 267.077 C 123.038 267.984,122.431 268.950,122.102 269.222 C 121.773 269.495,121.504 269.887,121.504 270.092 C 121.504 270.512,119.198 273.265,116.297 276.307 C 109.000 283.960,100.230 280.717,103.976 271.752 C 104.257 271.078,104.758 270.302,105.089 270.028 C 105.419 269.754,105.689 269.363,105.689 269.160 C 105.689 268.744,107.852 266.041,110.029 263.736 C 110.824 262.894,111.475 262.066,111.475 261.897 C 111.475 261.727,112.006 261.097,112.655 260.496 C 113.304 259.894,114.171 258.675,114.583 257.786 C 114.994 256.897,115.495 256.068,115.697 255.944 C 116.084 255.705,118.735 250.302,119.583 248.023 C 119.859 247.281,120.231 246.508,120.409 246.307 C 120.587 246.105,120.733 245.551,120.733 245.076 C 120.733 244.600,120.906 244.104,121.119 243.973 C 121.331 243.842,121.504 243.321,121.504 242.816 C 121.504 242.310,121.678 241.790,121.890 241.659 C 122.102 241.528,122.276 240.920,122.276 240.309 C 122.276 239.697,122.449 239.090,122.662 238.959 C 122.874 238.827,123.047 238.381,123.047 237.966 C 123.047 237.552,123.205 236.911,123.398 236.542 C 125.116 233.264,125.099 204.243,123.378 202.334 C 123.196 202.132,123.047 201.144,123.047 200.138 C 123.047 199.133,122.874 198.202,122.662 198.071 C 122.449 197.940,122.276 197.072,122.276 196.143 C 122.276 195.213,122.102 194.345,121.890 194.214 C 121.182 193.777,121.478 190.733,122.407 188.898 C 124.704 184.361,135.400 173.694,140.001 171.353 L 141.720 170.478 143.723 171.458 C 144.824 171.997,145.938 172.695,146.198 173.008 C 146.458 173.321,146.835 173.578,147.035 173.578 C 147.449 173.578,150.174 175.547,150.370 175.988 C 150.440 176.148,150.687 176.278,150.918 176.278 C 151.149 176.278,151.652 176.562,152.036 176.910 C 152.763 177.568,154.341 178.454,158.462 180.520 C 159.801 181.191,160.991 181.987,161.107 182.288 C 161.222 182.589,161.645 182.835,162.047 182.835 C 162.449 182.835,162.777 182.995,162.777 183.190 C 162.777 183.385,163.341 183.664,164.031 183.810 C 165.078 184.031,170.053 186.193,172.512 187.495 C 172.880 187.690,173.521 187.850,173.935 187.850 C 174.350 187.850,174.778 187.993,174.886 188.169 C 175.066 188.459,176.727 188.981,181.144 190.135 C 182.017 190.363,183.179 190.550,183.725 190.550 C 184.271 190.550,184.825 190.723,184.957 190.935 C 185.088 191.148,186.216 191.321,187.464 191.321 C 188.712 191.321,189.840 191.495,189.971 191.707 C 190.283 192.212,197.759 192.212,198.071 191.707 C 198.202 191.495,199.331 191.321,200.579 191.321 C 201.826 191.321,202.943 191.167,203.059 190.978 C 203.176 190.789,203.837 190.547,204.529 190.440 C 206.331 190.160,210.412 188.532,211.280 187.746 C 211.686 187.379,212.222 187.078,212.470 187.078 C 212.719 187.078,212.932 186.948,212.943 186.789 C 212.955 186.630,214.076 185.632,215.434 184.571 C 216.793 183.510,217.911 182.338,217.920 181.967 C 217.929 181.596,218.069 181.292,218.231 181.292 C 219.090 181.292,219.934 177.933,219.803 175.036 L 219.667 172.041 215.047 167.409 C 212.506 164.862,210.286 162.777,210.115 162.777 C 209.943 162.777,209.122 162.148,208.290 161.378 C 207.459 160.609,206.270 159.611,205.650 159.160 C 203.659 157.715,201.559 156.052,200.964 155.448 C 200.646 155.125,199.778 154.404,199.036 153.844 C 198.293 153.285,197.302 152.462,196.834 152.016 C 196.365 151.570,195.834 151.205,195.652 151.205 C 195.471 151.205,194.824 150.685,194.214 150.048 C 193.604 149.412,192.908 148.891,192.666 148.891 C 192.425 148.891,191.819 148.457,191.321 147.927 C 190.823 147.396,190.218 146.962,189.976 146.962 C 189.734 146.962,189.038 146.442,188.428 145.805 C 187.818 145.169,187.165 144.648,186.977 144.648 C 186.548 144.648,180.968 140.510,178.004 137.994 C 177.317 137.411,176.587 136.933,176.383 136.933 C 176.179 136.933,175.697 136.586,175.313 136.162 C 174.929 135.738,174.409 135.391,174.156 135.391 C 173.904 135.391,173.383 135.043,172.999 134.619 C 172.615 134.195,172.152 133.848,171.971 133.848 C 171.790 133.848,170.777 133.240,169.720 132.498 C 168.664 131.755,167.651 131.148,167.470 131.148 C 167.288 131.148,166.826 130.800,166.442 130.376 C 166.058 129.952,165.590 129.605,165.401 129.605 C 165.213 129.605,164.687 129.257,164.231 128.833 C 163.776 128.409,163.176 128.062,162.897 128.062 C 162.619 128.062,162.392 127.905,162.392 127.714 C 162.392 127.206,157.011 124.098,151.977 121.698 C 151.234 121.343,150.325 120.895,149.957 120.700 C 149.589 120.506,148.948 120.347,148.533 120.347 C 148.119 120.347,147.672 120.174,147.541 119.961 C 147.410 119.749,146.889 119.576,146.384 119.576 C 145.878 119.576,145.358 119.402,145.227 119.190 C 145.095 118.978,143.967 118.804,142.719 118.804 C 141.472 118.804,140.343 118.631,140.212 118.419 C 140.081 118.206,139.821 118.033,139.634 118.033 C 139.446 118.033,139.186 118.206,139.055 118.419 M248.987 123.433 C 248.856 123.645,247.728 123.819,246.480 123.819 C 245.232 123.819,244.104 123.992,243.973 124.204 C 243.842 124.417,242.714 124.590,241.466 124.590 C 240.218 124.590,239.090 124.764,238.959 124.976 C 238.827 125.188,238.133 125.362,237.416 125.362 C 236.698 125.362,236.016 125.516,235.899 125.705 C 235.782 125.893,235.121 126.137,234.430 126.245 C 233.738 126.354,231.958 126.735,230.473 127.093 C 228.987 127.450,226.944 127.837,225.932 127.952 C 224.920 128.067,223.999 128.313,223.884 128.497 C 223.770 128.682,223.263 128.833,222.758 128.833 C 222.253 128.833,221.732 129.007,221.601 129.219 C 221.470 129.431,220.862 129.605,220.251 129.605 C 219.639 129.605,219.032 129.778,218.901 129.990 C 218.770 130.203,218.075 130.376,217.358 130.376 C 216.640 130.376,215.946 130.550,215.815 130.762 C 215.684 130.974,215.163 131.148,214.658 131.148 C 214.152 131.148,213.643 131.302,213.527 131.491 C 213.410 131.679,212.749 131.927,212.058 132.041 C 210.006 132.378,206.836 133.248,206.525 133.559 C 206.366 133.718,205.845 133.848,205.368 133.848 C 204.891 133.848,204.442 133.978,204.372 134.137 C 204.301 134.296,203.375 134.851,202.314 135.371 C 199.090 136.951,199.102 136.785,201.993 139.699 C 203.431 141.148,204.794 142.334,205.022 142.334 C 205.250 142.334,206.114 143.028,206.943 143.877 C 207.772 144.725,208.595 145.419,208.773 145.419 C 208.951 145.419,209.480 145.786,209.949 146.233 C 210.417 146.681,211.668 147.696,212.729 148.489 C 213.790 149.282,214.897 150.218,215.188 150.568 C 215.478 150.919,215.877 151.205,216.073 151.205 C 216.270 151.205,216.832 151.639,217.324 152.170 C 217.816 152.700,218.380 153.134,218.577 153.134 C 218.775 153.134,219.615 153.828,220.444 154.677 C 221.272 155.526,222.145 156.220,222.383 156.220 C 222.621 156.220,223.224 156.654,223.722 157.184 C 224.221 157.715,224.819 158.149,225.052 158.149 C 225.285 158.149,226.861 159.544,228.553 161.250 C 231.625 164.347,233.237 165.477,234.582 165.477 C 234.974 165.477,235.294 165.651,235.294 165.863 C 235.294 166.075,236.065 166.249,237.007 166.249 C 237.949 166.249,238.827 166.075,238.959 165.863 C 239.090 165.651,240.391 165.477,241.851 165.477 C 243.312 165.477,244.613 165.304,244.744 165.092 C 244.876 164.879,245.459 164.706,246.040 164.706 C 246.622 164.706,247.262 164.560,247.464 164.382 C 247.665 164.204,248.872 163.832,250.145 163.554 C 251.418 163.277,252.843 162.815,253.313 162.528 C 253.783 162.241,254.397 162.006,254.677 162.006 C 255.355 162.006,262.916 158.201,264.540 157.042 C 267.640 154.831,271.938 148.970,271.938 146.954 C 271.938 146.559,272.112 146.129,272.324 145.998 C 272.537 145.867,272.710 144.137,272.710 142.141 C 272.710 140.144,272.537 138.415,272.324 138.284 C 272.112 138.152,271.938 137.448,271.938 136.718 C 271.938 135.988,271.765 135.391,271.553 135.391 C 271.340 135.391,271.167 135.043,271.167 134.619 C 271.167 134.195,270.993 133.848,270.781 133.848 C 270.569 133.848,270.395 133.683,270.395 133.481 C 270.395 132.067,264.586 125.862,262.392 124.933 C 261.702 124.641,261.138 124.271,261.138 124.110 C 261.138 123.950,260.714 123.819,260.196 123.819 C 259.678 123.819,259.148 123.645,259.016 123.433 C 258.878 123.209,256.770 123.047,254.002 123.047 C 251.234 123.047,249.126 123.209,248.987 123.433 M247.830 176.151 C 246.770 176.246,245.737 176.487,245.535 176.687 C 245.334 176.886,244.780 177.049,244.304 177.049 C 243.829 177.049,243.333 177.223,243.202 177.435 C 243.070 177.647,242.610 177.821,242.178 177.821 C 241.746 177.821,240.931 178.137,240.368 178.524 C 239.805 178.910,238.737 179.530,237.994 179.902 C 237.252 180.273,236.232 180.808,235.728 181.090 C 234.571 181.739,230.280 185.966,230.280 186.457 C 230.280 186.659,229.991 187.143,229.639 187.533 C 228.965 188.277,228.679 188.729,227.327 191.182 C 226.318 193.012,222.629 197.107,221.989 197.107 C 221.735 197.107,221.213 197.454,220.829 197.878 C 220.445 198.303,219.816 198.650,219.431 198.650 C 219.046 198.650,218.113 198.997,217.358 199.421 C 216.602 199.846,215.653 200.193,215.247 200.193 C 214.842 200.193,214.403 200.366,214.272 200.579 C 214.141 200.791,213.558 200.964,212.976 200.964 C 212.395 200.964,211.754 201.121,211.553 201.313 C 210.483 202.329,198.195 202.914,187.154 202.475 C 162.863 201.507,164.706 201.413,164.706 203.617 C 164.706 204.175,164.272 205.828,163.742 207.291 C 163.211 208.753,162.777 210.434,162.777 211.027 C 162.777 211.620,162.604 212.212,162.392 212.343 C 161.916 212.637,161.879 217.310,162.344 218.231 C 162.530 218.599,162.899 219.595,163.163 220.444 C 163.988 223.093,164.987 225.036,166.023 226.007 C 166.571 226.522,167.020 227.137,167.020 227.376 C 167.020 227.908,169.700 230.564,170.938 231.259 C 171.435 231.538,172.449 232.054,173.192 232.405 C 173.934 232.757,174.843 233.204,175.212 233.398 C 175.580 233.592,176.394 233.751,177.021 233.751 C 177.648 233.751,178.268 233.925,178.399 234.137 C 178.530 234.349,179.398 234.523,180.328 234.523 C 181.258 234.523,182.125 234.349,182.257 234.137 C 182.388 233.925,183.144 233.751,183.938 233.751 C 184.732 233.751,185.546 233.595,185.747 233.405 C 185.949 233.215,186.808 232.972,187.657 232.866 C 191.367 232.402,195.014 231.702,195.352 231.390 C 195.554 231.204,196.455 231.051,197.354 231.051 C 198.254 231.051,199.097 230.878,199.229 230.665 C 199.360 230.453,200.064 230.280,200.794 230.280 C 201.524 230.280,202.122 230.106,202.122 229.894 C 202.122 229.682,202.719 229.508,203.449 229.508 C 204.179 229.508,204.883 229.335,205.014 229.122 C 205.146 228.910,205.840 228.737,206.557 228.737 C 207.275 228.737,207.957 228.582,208.074 228.394 C 208.191 228.205,208.852 227.957,209.543 227.843 C 210.235 227.729,211.495 227.465,212.343 227.257 C 213.192 227.048,214.928 226.669,216.201 226.414 C 217.473 226.159,218.816 225.796,219.185 225.608 C 219.553 225.419,220.367 225.265,220.994 225.265 C 221.621 225.265,222.241 225.092,222.372 224.879 C 222.503 224.667,223.111 224.494,223.722 224.494 C 224.334 224.494,224.941 224.320,225.072 224.108 C 225.203 223.896,225.898 223.722,226.615 223.722 C 227.333 223.722,228.027 223.549,228.158 223.337 C 228.289 223.124,228.736 222.951,229.150 222.951 C 229.565 222.951,230.206 222.793,230.574 222.600 C 231.398 222.169,236.462 221.022,237.544 221.022 C 237.979 221.022,238.442 220.849,238.573 220.636 C 238.704 220.424,239.225 220.251,239.730 220.251 C 240.235 220.251,240.756 220.077,240.887 219.865 C 241.018 219.653,241.713 219.479,242.430 219.479 C 243.148 219.479,243.842 219.306,243.973 219.094 C 244.104 218.881,244.712 218.708,245.323 218.708 C 245.934 218.708,246.542 218.534,246.673 218.322 C 246.804 218.110,247.251 217.936,247.665 217.936 C 248.080 217.936,248.721 217.777,249.089 217.583 C 250.019 217.093,255.026 215.626,256.693 215.356 C 257.451 215.233,258.164 214.982,258.277 214.799 C 258.391 214.615,258.823 214.465,259.237 214.465 C 259.652 214.465,260.336 214.291,260.757 214.079 C 261.179 213.867,261.868 213.520,262.290 213.308 C 262.711 213.095,263.310 212.922,263.621 212.922 C 264.260 212.922,267.330 210.934,268.072 210.039 C 268.341 209.715,268.770 209.450,269.025 209.450 C 269.573 209.450,271.167 207.835,271.167 207.280 C 271.167 207.068,271.679 206.404,272.305 205.804 C 272.931 205.204,273.552 204.219,273.685 203.615 C 273.818 203.010,274.087 202.417,274.282 202.296 C 274.478 202.175,274.638 201.576,274.638 200.964 C 274.638 200.353,274.812 199.745,275.024 199.614 C 276.319 198.814,274.803 188.245,273.157 186.600 C 272.911 186.354,272.710 185.966,272.710 185.738 C 272.710 184.033,263.410 177.049,261.141 177.049 C 260.800 177.049,260.336 176.864,260.109 176.638 C 259.669 176.198,251.092 175.857,247.830 176.151 M254.002 229.390 C 252.729 229.478,251.523 229.715,251.321 229.915 C 251.120 230.116,250.392 230.280,249.705 230.280 C 249.017 230.280,248.347 230.453,248.216 230.665 C 248.085 230.878,247.304 231.051,246.480 231.051 C 245.657 231.051,244.876 231.225,244.744 231.437 C 244.613 231.649,243.919 231.823,243.202 231.823 C 242.484 231.823,241.802 231.977,241.685 232.166 C 241.568 232.354,240.907 232.608,240.216 232.728 C 236.811 233.322,234.872 233.757,232.401 234.481 C 230.916 234.916,229.234 235.277,228.663 235.283 C 228.092 235.289,227.518 235.468,227.387 235.680 C 227.256 235.892,226.725 236.066,226.207 236.066 C 225.689 236.066,225.265 236.239,225.265 236.451 C 225.265 236.663,224.668 236.837,223.938 236.837 C 223.208 236.837,222.503 237.011,222.372 237.223 C 222.241 237.435,221.720 237.608,221.215 237.608 C 220.710 237.608,220.189 237.782,220.058 237.994 C 219.927 238.206,219.439 238.384,218.974 238.389 C 218.510 238.395,217.116 238.738,215.878 239.152 C 214.641 239.566,212.771 240.019,211.723 240.158 C 210.676 240.297,209.726 240.561,209.612 240.745 C 209.498 240.929,208.991 241.080,208.486 241.080 C 207.981 241.080,207.460 241.254,207.329 241.466 C 207.198 241.678,206.578 241.851,205.951 241.851 C 205.324 241.851,204.466 242.025,204.045 242.237 C 203.623 242.449,202.934 242.797,202.512 243.009 C 202.091 243.221,201.233 243.394,200.607 243.394 C 199.980 243.394,199.360 243.568,199.229 243.780 C 199.097 243.992,198.601 244.166,198.126 244.166 C 197.650 244.166,197.096 244.310,196.895 244.486 C 196.693 244.663,195.400 245.113,194.021 245.487 C 192.642 245.861,191.213 246.324,190.844 246.516 C 190.476 246.709,189.825 246.866,189.398 246.866 C 188.971 246.866,188.621 247.040,188.621 247.252 C 188.621 247.464,188.303 247.637,187.915 247.637 C 186.002 247.637,179.364 252.596,179.364 254.025 C 179.364 254.265,179.050 254.744,178.667 255.091 C 178.284 255.438,177.731 256.332,177.438 257.079 C 177.145 257.827,176.764 258.438,176.591 258.438 C 176.419 258.438,176.278 258.758,176.278 259.150 C 176.278 259.542,176.017 260.384,175.699 261.022 C 174.537 263.351,174.633 270.333,175.838 271.152 C 176.006 271.266,176.865 272.432,177.748 273.742 C 179.848 276.858,185.168 282.158,186.992 282.951 C 187.782 283.294,188.730 283.734,189.098 283.928 C 190.018 284.414,200.469 284.385,200.771 283.896 C 200.903 283.684,201.857 283.510,202.893 283.510 C 203.929 283.510,204.883 283.337,205.014 283.124 C 205.146 282.912,205.840 282.739,206.557 282.739 C 207.275 282.739,207.969 282.565,208.100 282.353 C 208.231 282.141,209.013 281.967,209.836 281.967 C 210.660 281.967,211.441 281.794,211.572 281.581 C 211.703 281.369,212.397 281.196,213.115 281.196 C 213.832 281.196,214.518 281.036,214.639 280.840 C 214.760 280.645,215.987 280.364,217.367 280.216 C 218.747 280.068,219.970 279.794,220.086 279.607 C 220.202 279.420,220.894 279.267,221.624 279.267 C 222.354 279.267,222.951 279.094,222.951 278.881 C 222.951 278.669,223.548 278.496,224.278 278.496 C 225.008 278.496,225.713 278.322,225.844 278.110 C 225.975 277.898,226.496 277.724,227.001 277.724 C 227.506 277.724,228.027 277.551,228.158 277.338 C 228.289 277.126,228.765 276.953,229.214 276.953 C 229.664 276.953,230.565 276.784,231.217 276.577 C 232.619 276.132,236.708 275.108,239.151 274.590 C 240.106 274.387,241.189 274.055,241.557 273.851 C 241.925 273.648,242.750 273.481,243.389 273.481 C 244.029 273.481,244.552 273.308,244.552 273.095 C 244.552 272.883,244.975 272.710,245.493 272.710 C 246.011 272.710,246.542 272.536,246.673 272.324 C 246.804 272.112,247.499 271.938,248.216 271.938 C 248.933 271.938,249.628 271.765,249.759 271.553 C 249.890 271.340,250.386 271.167,250.862 271.167 C 251.337 271.167,251.891 271.023,252.093 270.846 C 252.294 270.670,253.587 270.220,254.966 269.846 C 256.345 269.472,257.775 269.008,258.143 268.816 C 258.512 268.624,259.163 268.467,259.590 268.467 C 260.017 268.467,260.366 268.293,260.366 268.081 C 260.366 267.869,260.708 267.695,261.126 267.695 C 261.544 267.695,262.504 267.348,263.259 266.924 C 264.015 266.500,264.870 266.152,265.160 266.152 C 265.913 266.152,273.331 262.363,273.885 261.695 C 274.139 261.389,274.550 261.138,274.798 261.138 C 275.346 261.138,278.496 257.988,278.496 257.440 C 278.496 257.225,278.698 256.846,278.946 256.599 C 281.211 254.333,280.595 240.677,278.123 238.380 C 278.009 238.274,277.665 237.666,277.359 237.030 C 276.711 235.684,273.122 231.823,272.519 231.823 C 272.293 231.823,271.858 231.475,271.553 231.051 C 271.247 230.627,270.636 230.280,270.194 230.280 C 269.753 230.280,269.176 230.063,268.910 229.797 C 268.417 229.304,258.970 229.046,254.002 229.390 M261.793 281.827 C 261.484 282.135,253.655 283.466,252.000 283.491 C 251.323 283.502,250.661 283.684,250.530 283.896 C 250.399 284.108,249.779 284.282,249.152 284.282 C 248.526 284.282,247.668 284.455,247.246 284.667 C 246.825 284.879,246.135 285.227,245.714 285.439 C 245.293 285.651,244.435 285.824,243.808 285.824 C 243.181 285.824,242.561 285.998,242.430 286.210 C 242.299 286.422,241.605 286.596,240.887 286.596 C 240.170 286.596,239.487 286.750,239.371 286.939 C 239.254 287.128,238.593 287.377,237.901 287.494 C 234.003 288.150,231.941 288.601,231.346 288.928 C 230.977 289.130,230.337 289.296,229.922 289.296 C 229.507 289.296,229.061 289.470,228.930 289.682 C 228.798 289.894,228.104 290.068,227.387 290.068 C 226.669 290.068,225.996 290.207,225.891 290.377 C 225.786 290.547,224.810 290.929,223.722 291.225 C 222.635 291.521,221.659 291.902,221.554 292.073 C 221.448 292.243,220.800 292.382,220.112 292.382 C 219.425 292.382,218.697 292.526,218.496 292.702 C 218.294 292.879,217.001 293.329,215.622 293.703 C 214.243 294.077,212.813 294.540,212.445 294.732 C 212.077 294.925,211.252 295.082,210.613 295.082 C 209.973 295.082,209.450 295.256,209.450 295.468 C 209.450 295.680,209.103 295.853,208.679 295.853 C 208.255 295.853,207.907 296.027,207.907 296.239 C 207.907 296.451,207.484 296.625,206.966 296.625 C 206.448 296.625,205.917 296.798,205.786 297.011 C 205.655 297.223,205.243 297.396,204.871 297.396 C 204.499 297.396,203.500 297.732,202.650 298.143 C 201.800 298.553,200.638 299.006,200.067 299.150 C 199.496 299.293,198.933 299.565,198.816 299.753 C 198.700 299.942,198.228 300.096,197.768 300.096 C 196.908 300.096,191.321 305.286,191.321 306.085 C 191.321 306.313,191.118 306.702,190.871 306.950 C 190.293 307.527,189.406 310.067,189.398 311.163 C 189.395 311.628,189.219 312.116,189.007 312.247 C 188.795 312.378,188.621 313.680,188.621 315.140 C 188.621 316.600,188.795 317.902,189.007 318.033 C 189.219 318.164,189.392 318.858,189.392 319.576 C 189.392 320.293,189.566 320.987,189.778 321.119 C 189.990 321.250,190.164 321.767,190.164 322.269 C 190.164 322.771,190.598 323.697,191.128 324.327 C 191.659 324.957,192.093 325.650,192.093 325.866 C 192.093 326.440,198.112 332.498,198.683 332.498 C 198.950 332.498,199.442 332.737,199.777 333.029 C 202.075 335.034,207.382 335.595,213.500 334.478 C 214.561 334.285,216.905 333.921,218.708 333.669 C 220.511 333.417,222.288 333.051,222.656 332.855 C 223.025 332.658,223.839 332.498,224.466 332.498 C 225.093 332.498,225.713 332.324,225.844 332.112 C 225.975 331.900,226.669 331.726,227.387 331.726 C 228.104 331.726,228.798 331.553,228.930 331.340 C 229.061 331.128,229.668 330.955,230.280 330.955 C 230.891 330.955,231.499 330.781,231.630 330.569 C 231.761 330.357,232.455 330.183,233.173 330.183 C 233.890 330.183,234.573 330.029,234.689 329.840 C 234.806 329.651,235.467 329.402,236.158 329.285 C 239.701 328.689,242.082 328.133,242.411 327.826 C 242.612 327.637,243.253 327.483,243.835 327.483 C 244.416 327.483,244.999 327.310,245.130 327.097 C 245.261 326.885,245.782 326.712,246.287 326.712 C 246.793 326.712,247.313 326.538,247.445 326.326 C 247.576 326.114,248.270 325.940,248.987 325.940 C 249.705 325.940,250.399 325.767,250.530 325.554 C 250.661 325.342,251.195 325.169,251.716 325.169 C 252.236 325.169,252.964 325.012,253.332 324.821 C 253.701 324.629,254.696 324.287,255.545 324.059 C 260.363 322.770,261.783 322.351,262.386 322.041 C 262.755 321.852,263.395 321.697,263.810 321.697 C 264.225 321.697,264.671 321.524,264.802 321.311 C 264.933 321.099,265.464 320.926,265.982 320.926 C 266.500 320.926,266.924 320.752,266.924 320.540 C 266.924 320.328,267.255 320.154,267.659 320.154 C 268.063 320.154,269.061 319.826,269.877 319.425 C 270.692 319.023,272.367 318.377,273.598 317.988 C 275.489 317.390,276.226 316.859,278.342 314.571 C 281.715 310.922,281.967 310.600,281.967 309.944 C 281.967 309.632,282.285 308.808,282.673 308.112 C 283.581 306.484,284.455 300.346,284.171 297.596 C 283.515 291.234,276.597 284.026,269.316 282.117 C 267.239 281.573,262.240 281.380,261.793 281.827 " stroke="none" fill="currentColor" fill-rule="evenodd"/><path id="path1" d="M258.275 0.748 C 256.564 1.876,256.445 2.320,256.044 9.017 C 255.673 15.236,255.908 52.092,256.373 60.463 L 256.614 64.802 262.410 64.802 L 268.207 64.802 267.960 36.162 C 267.676 3.059,267.577 1.924,264.868 0.573 C 263.198 -0.260,259.662 -0.166,258.275 0.748 M166.957 37.514 C 163.892 40.096,163.995 43.094,167.297 47.445 C 173.338 55.404,201.714 82.883,208.198 87.054 C 210.586 88.590,210.827 88.523,213.455 85.601 C 217.898 80.659,214.824 76.582,184.948 47.785 C 175.697 38.868,169.529 35.347,166.957 37.514 M350.774 37.915 C 343.306 43.853,321.857 64.563,313.950 73.471 C 313.013 74.526,311.643 76.058,310.905 76.875 C 306.349 81.916,306.459 85.476,311.250 88.084 L 313.233 89.163 314.862 88.202 C 315.757 87.673,316.839 86.921,317.265 86.532 C 317.692 86.143,318.907 85.132,319.965 84.287 C 331.165 75.337,358.557 46.462,359.245 42.881 C 360.065 38.609,354.215 35.179,350.774 37.915 M133.462 106.270 C 130.845 106.767,128.043 107.634,125.747 108.658 C 120.245 111.111,112.863 115.075,108.197 118.082 C 106.712 119.038,102.546 121.568,98.939 123.703 C 92.717 127.386,89.416 129.252,82.353 133.082 C 56.956 146.854,33.860 170.081,22.140 193.635 C 18.190 201.573,12.781 218.276,11.211 227.387 C 10.955 228.872,10.593 230.955,10.407 232.015 C 9.629 236.450,9.234 242.960,9.235 251.302 C 9.236 259.565,9.492 263.009,10.769 271.938 C 14.966 301.277,32.991 332.460,57.275 352.396 C 58.545 353.438,60.020 354.696,60.554 355.192 C 62.955 357.421,73.285 363.960,78.689 366.672 C 95.496 375.107,110.192 379.200,129.797 380.904 C 146.571 382.362,167.269 380.170,179.364 375.655 C 195.291 369.710,212.711 360.086,223.598 351.218 C 231.069 345.132,234.546 343.646,255.545 337.560 C 286.456 328.600,293.277 323.609,295.666 308.197 C 297.776 294.591,294.038 280.748,287.046 276.275 C 284.285 274.509,284.382 273.841,288.656 265.231 C 296.854 248.715,295.390 236.190,283.872 224.301 C 278.801 219.066,278.835 219.311,282.424 214.036 C 286.915 207.434,288.407 200.424,287.185 191.662 C 285.964 182.904,284.962 180.406,279.365 172.172 C 275.724 166.816,275.809 167.121,277.338 164.899 C 277.975 163.974,278.496 163.124,278.496 163.010 C 278.496 162.896,279.176 161.751,280.007 160.464 C 288.122 147.909,286.182 128.579,275.753 118.091 C 267.323 109.613,255.634 107.994,236.258 112.620 C 227.954 114.603,222.732 115.891,220.636 116.472 C 219.257 116.855,216.741 117.536,215.043 117.985 C 213.346 118.435,209.701 119.427,206.943 120.190 C 204.185 120.952,200.280 122.009,198.264 122.537 C 196.249 123.066,194.079 123.644,193.443 123.823 C 192.806 124.002,190.463 124.621,188.235 125.198 L 184.185 126.247 179.556 123.230 C 165.467 114.045,160.406 111.128,154.475 108.772 C 147.311 105.926,139.911 105.045,133.462 106.270 M140.212 118.419 C 140.343 118.631,141.472 118.804,142.719 118.804 C 143.967 118.804,145.095 118.978,145.227 119.190 C 145.358 119.402,145.878 119.576,146.384 119.576 C 146.889 119.576,147.410 119.749,147.541 119.961 C 147.672 120.174,148.119 120.347,148.533 120.347 C 148.948 120.347,149.589 120.506,149.957 120.700 C 150.325 120.895,151.234 121.343,151.977 121.698 C 157.011 124.098,162.392 127.206,162.392 127.714 C 162.392 127.905,162.619 128.062,162.897 128.062 C 163.176 128.062,163.776 128.409,164.231 128.833 C 164.687 129.257,165.213 129.605,165.401 129.605 C 165.590 129.605,166.058 129.952,166.442 130.376 C 166.826 130.800,167.288 131.148,167.470 131.148 C 167.651 131.148,168.664 131.755,169.720 132.498 C 170.777 133.240,171.790 133.848,171.971 133.848 C 172.152 133.848,172.615 134.195,172.999 134.619 C 173.383 135.043,173.904 135.391,174.156 135.391 C 174.409 135.391,174.929 135.738,175.313 136.162 C 175.697 136.586,176.179 136.933,176.383 136.933 C 176.587 136.933,177.317 137.411,178.004 137.994 C 180.968 140.510,186.548 144.648,186.977 144.648 C 187.165 144.648,187.818 145.169,188.428 145.805 C 189.038 146.442,189.734 146.962,189.976 146.962 C 190.218 146.962,190.823 147.396,191.321 147.927 C 191.819 148.457,192.425 148.891,192.666 148.891 C 192.908 148.891,193.604 149.412,194.214 150.048 C 194.824 150.685,195.471 151.205,195.652 151.205 C 195.834 151.205,196.365 151.570,196.834 152.016 C 197.302 152.462,198.293 153.285,199.036 153.844 C 199.778 154.404,200.646 155.125,200.964 155.448 C 201.559 156.052,203.659 157.715,205.650 159.160 C 206.270 159.611,207.459 160.609,208.290 161.378 C 209.122 162.148,209.943 162.777,210.115 162.777 C 210.286 162.777,212.506 164.862,215.047 167.409 L 219.667 172.041 219.803 175.036 C 219.934 177.933,219.090 181.292,218.231 181.292 C 218.069 181.292,217.929 181.596,217.920 181.967 C 217.911 182.338,216.793 183.510,215.434 184.571 C 214.076 185.632,212.955 186.630,212.943 186.789 C 212.932 186.948,212.719 187.078,212.470 187.078 C 212.222 187.078,211.686 187.379,211.280 187.746 C 210.412 188.532,206.331 190.160,204.529 190.440 C 203.837 190.547,203.176 190.789,203.059 190.978 C 202.943 191.167,201.826 191.321,200.579 191.321 C 199.331 191.321,198.202 191.495,198.071 191.707 C 197.759 192.212,190.283 192.212,189.971 191.707 C 189.840 191.495,188.712 191.321,187.464 191.321 C 186.216 191.321,185.088 191.148,184.957 190.935 C 184.825 190.723,184.271 190.550,183.725 190.550 C 183.179 190.550,182.017 190.363,181.144 190.135 C 176.727 188.981,175.066 188.459,174.886 188.169 C 174.778 187.993,174.350 187.850,173.935 187.850 C 173.521 187.850,172.880 187.690,172.512 187.495 C 170.053 186.193,165.078 184.031,164.031 183.810 C 163.341 183.664,162.777 183.385,162.777 183.190 C 162.777 182.995,162.449 182.835,162.047 182.835 C 161.645 182.835,161.222 182.589,161.107 182.288 C 160.991 181.987,159.801 181.191,158.462 180.520 C 154.341 178.454,152.763 177.568,152.036 176.910 C 151.652 176.562,151.149 176.278,150.918 176.278 C 150.687 176.278,150.440 176.148,150.370 175.988 C 150.174 175.547,147.449 173.578,147.035 173.578 C 146.835 173.578,146.458 173.321,146.198 173.008 C 145.938 172.695,144.824 171.997,143.723 171.458 L 141.720 170.478 140.001 171.353 C 135.400 173.694,124.704 184.361,122.407 188.898 C 121.478 190.733,121.182 193.777,121.890 194.214 C 122.102 194.345,122.276 195.213,122.276 196.143 C 122.276 197.072,122.449 197.940,122.662 198.071 C 122.874 198.202,123.047 199.133,123.047 200.138 C 123.047 201.144,123.196 202.132,123.378 202.334 C 125.099 204.243,125.116 233.264,123.398 236.542 C 123.205 236.911,123.047 237.552,123.047 237.966 C 123.047 238.381,122.874 238.827,122.662 238.959 C 122.449 239.090,122.276 239.697,122.276 240.309 C 122.276 240.920,122.102 241.528,121.890 241.659 C 121.678 241.790,121.504 242.310,121.504 242.816 C 121.504 243.321,121.331 243.842,121.119 243.973 C 120.906 244.104,120.733 244.600,120.733 245.076 C 120.733 245.551,120.587 246.105,120.409 246.307 C 120.231 246.508,119.859 247.281,119.583 248.023 C 118.735 250.302,116.084 255.705,115.697 255.944 C 115.495 256.068,114.994 256.897,114.583 257.786 C 114.171 258.675,113.304 259.894,112.655 260.496 C 112.006 261.097,111.475 261.727,111.475 261.897 C 111.475 262.066,110.824 262.894,110.029 263.736 C 107.852 266.041,105.689 268.744,105.689 269.160 C 105.689 269.363,105.419 269.754,105.089 270.028 C 104.758 270.302,104.257 271.078,103.976 271.752 C 100.230 280.717,109.000 283.960,116.297 276.307 C 119.198 273.265,121.504 270.512,121.504 270.092 C 121.504 269.887,121.773 269.495,122.102 269.222 C 122.431 268.950,123.038 267.984,123.451 267.077 C 123.864 266.170,124.377 265.320,124.590 265.188 C 124.803 265.056,125.368 264.157,125.845 263.190 C 127.272 260.294,127.460 259.981,127.767 259.981 C 127.929 259.981,128.062 259.634,128.062 259.209 C 128.062 258.785,128.235 258.438,128.447 258.438 C 128.660 258.438,128.833 258.108,128.833 257.706 C 128.833 257.303,129.354 255.983,129.990 254.773 C 130.627 253.563,131.148 252.386,131.148 252.156 C 131.148 251.926,131.518 250.973,131.970 250.039 C 132.423 249.104,132.880 247.570,132.986 246.629 C 133.092 245.689,133.329 244.827,133.513 244.713 C 133.697 244.599,133.848 244.093,133.848 243.587 C 133.848 243.082,134.021 242.561,134.233 242.430 C 134.446 242.299,134.619 241.542,134.619 240.749 C 134.619 239.955,134.775 239.141,134.965 238.939 C 135.156 238.738,135.421 237.792,135.555 236.837 C 135.690 235.882,135.967 233.886,136.173 232.401 C 137.535 222.562,137.267 203.931,135.741 202.334 C 135.548 202.132,135.391 201.221,135.391 200.309 C 135.391 199.396,135.217 198.650,135.005 198.650 C 134.782 198.650,134.619 197.428,134.619 195.757 C 134.619 194.086,134.782 192.864,135.005 192.864 C 135.217 192.864,135.391 192.468,135.391 191.984 C 135.391 190.957,139.321 186.924,140.735 186.501 C 142.090 186.095,144.824 187.010,146.037 188.276 C 146.625 188.890,147.295 189.392,147.526 189.392 C 148.894 189.392,155.461 197.420,154.388 197.781 C 154.122 197.870,153.905 198.259,153.905 198.646 C 153.905 199.032,153.581 200.016,153.184 200.831 C 150.023 207.325,149.670 220.369,152.503 226.047 C 152.850 226.743,153.134 227.623,153.134 228.002 C 153.134 228.381,153.308 228.798,153.520 228.930 C 153.732 229.061,153.905 229.592,153.905 230.110 C 153.905 230.627,154.079 231.051,154.291 231.051 C 154.503 231.051,154.677 231.398,154.677 231.823 C 154.677 232.247,154.807 232.594,154.966 232.594 C 155.214 232.595,156.109 233.977,158.003 237.286 C 158.656 238.426,160.548 240.309,161.041 240.309 C 161.280 240.309,161.975 240.829,162.584 241.466 C 163.194 242.102,163.870 242.623,164.087 242.623 C 165.041 242.623,167.406 245.495,167.407 246.655 C 167.408 248.044,166.345 252.941,165.834 253.900 C 165.638 254.269,165.477 255.093,165.477 255.732 C 165.477 256.372,165.304 256.895,165.092 256.895 C 164.848 256.895,164.706 259.523,164.706 264.008 C 164.706 268.334,164.857 271.215,165.092 271.360 C 165.304 271.491,165.477 272.285,165.477 273.123 C 165.477 273.962,165.646 274.950,165.852 275.319 C 166.058 275.687,166.584 277.196,167.021 278.671 C 167.458 280.147,168.045 281.622,168.326 281.950 C 168.607 282.278,169.078 283.110,169.373 283.799 C 169.667 284.489,170.040 285.053,170.200 285.053 C 170.361 285.053,170.492 285.362,170.492 285.739 C 170.492 286.117,170.839 286.676,171.263 286.982 C 171.688 287.287,172.035 287.708,172.035 287.916 C 172.035 288.382,174.377 290.839,174.821 290.839 C 176.530 290.839,181.877 296.966,180.964 297.879 C 180.720 298.123,180.521 298.885,180.521 299.572 C 180.521 300.260,180.347 300.930,180.135 301.061 C 179.923 301.192,179.749 301.799,179.749 302.411 C 179.749 303.022,179.596 303.617,179.408 303.733 C 179.220 303.849,178.976 304.424,178.866 305.010 C 178.756 305.596,178.304 307.464,177.862 309.161 C 176.524 314.298,176.990 324.738,178.636 326.500 C 178.824 326.701,178.978 327.133,178.978 327.460 C 178.978 328.274,181.579 333.478,182.274 334.055 C 182.582 334.311,182.835 334.747,182.835 335.024 C 182.835 335.301,183.235 335.844,183.723 336.230 C 184.212 336.617,184.727 337.237,184.869 337.608 C 185.010 337.980,185.353 338.284,185.631 338.284 C 185.909 338.284,186.392 338.647,186.704 339.090 C 187.463 340.170,191.166 342.966,192.944 343.803 C 193.731 344.173,194.477 344.641,194.602 344.844 C 194.849 345.244,199.634 347.541,200.220 347.541 C 200.417 347.541,200.579 347.715,200.579 347.927 C 200.579 348.139,200.926 348.312,201.350 348.312 C 201.774 348.312,202.122 348.445,202.122 348.607 C 202.122 348.769,202.501 349.072,202.964 349.282 C 203.428 349.491,203.869 349.858,203.945 350.096 C 204.092 350.561,186.105 359.652,184.211 360.070 C 183.589 360.208,182.385 360.656,181.535 361.066 C 180.685 361.477,179.760 361.813,179.479 361.813 C 179.197 361.813,178.579 362.014,178.105 362.259 C 176.252 363.217,175.877 363.356,175.149 363.356 C 174.734 363.356,174.287 363.529,174.156 363.742 C 174.025 363.954,173.331 364.127,172.613 364.127 C 171.896 364.127,171.202 364.301,171.070 364.513 C 170.939 364.725,170.493 364.899,170.078 364.899 C 169.663 364.899,169.023 365.054,168.654 365.244 C 168.001 365.580,164.142 366.325,161.041 366.713 C 160.193 366.819,159.334 367.062,159.132 367.253 C 158.931 367.443,157.596 367.599,156.165 367.599 C 154.735 367.599,153.458 367.772,153.327 367.985 C 153.194 368.200,151.402 368.370,149.277 368.370 C 147.152 368.370,145.360 368.541,145.227 368.756 C 145.085 368.984,142.715 369.142,139.418 369.142 C 135.962 369.142,133.848 368.995,133.848 368.756 C 133.848 368.522,132.184 368.370,129.627 368.370 C 127.230 368.370,125.304 368.204,125.169 367.985 C 125.038 367.772,123.909 367.599,122.662 367.599 C 121.414 367.599,120.298 367.446,120.183 367.260 C 120.068 367.074,118.973 366.831,117.750 366.721 C 115.053 366.479,111.143 365.710,110.227 365.241 C 109.859 365.053,109.208 364.899,108.781 364.899 C 108.353 364.899,108.004 364.725,108.004 364.513 C 108.004 364.301,107.407 364.127,106.677 364.127 C 105.947 364.127,105.242 363.954,105.111 363.742 C 104.980 363.529,104.478 363.356,103.995 363.356 C 103.513 363.356,102.999 363.237,102.854 363.091 C 102.580 362.818,101.589 362.432,97.016 360.819 C 93.469 359.568,92.189 358.988,92.189 358.633 C 92.189 358.473,91.842 358.341,91.418 358.341 C 90.993 358.341,90.646 358.210,90.646 358.050 C 90.646 357.889,90.082 357.515,89.392 357.219 C 86.194 355.842,82.341 353.916,82.224 353.636 C 82.154 353.466,81.778 353.327,81.389 353.327 C 81.000 353.327,80.624 353.186,80.553 353.013 C 80.364 352.553,75.631 349.345,74.054 348.609 C 73.308 348.261,72.280 347.531,71.769 346.987 C 71.258 346.443,70.643 345.998,70.404 345.998 C 70.164 345.998,69.379 345.391,68.660 344.648 C 67.940 343.905,67.150 343.298,66.904 343.298 C 66.658 343.298,66.041 342.819,65.533 342.232 C 65.025 341.646,63.804 340.522,62.819 339.734 C 60.924 338.217,50.650 328.022,50.453 327.464 C 50.390 327.283,49.466 326.215,48.401 325.091 C 47.336 323.967,46.034 322.398,45.508 321.603 C 44.982 320.809,44.421 320.158,44.262 320.157 C 44.103 320.155,43.973 319.924,43.973 319.643 C 43.973 319.362,43.521 318.711,42.968 318.196 C 42.415 317.682,41.800 316.914,41.601 316.490 C 41.010 315.229,40.278 314.032,39.655 313.310 C 39.334 312.938,38.830 312.068,38.535 311.379 C 38.240 310.689,37.887 310.125,37.749 310.125 C 37.472 310.125,30.851 296.820,30.073 294.696 C 29.800 293.954,29.432 293.181,29.254 292.980 C 29.075 292.778,28.930 292.224,28.930 291.749 C 28.930 291.273,28.756 290.777,28.544 290.646 C 28.332 290.515,28.158 289.984,28.158 289.466 C 28.158 288.948,27.985 288.525,27.772 288.525 C 27.560 288.525,27.387 288.101,27.387 287.583 C 27.387 287.065,27.213 286.534,27.001 286.403 C 26.789 286.272,26.615 285.652,26.615 285.025 C 26.615 284.398,26.454 283.584,26.257 283.216 C 26.060 282.847,25.696 281.504,25.448 280.231 C 25.199 278.959,24.826 277.223,24.617 276.374 C 24.409 275.526,24.148 274.137,24.037 273.288 C 23.927 272.440,23.680 271.581,23.490 271.379 C 23.299 271.177,23.144 270.016,23.144 268.798 C 23.144 267.580,22.970 266.476,22.758 266.345 C 22.539 266.210,22.372 264.292,22.372 261.909 C 22.372 259.527,22.205 257.609,21.986 257.473 C 21.467 257.153,21.467 243.522,21.986 243.202 C 22.199 243.070,22.372 241.595,22.372 239.923 C 22.372 238.251,22.546 236.775,22.758 236.644 C 22.970 236.513,23.144 235.385,23.144 234.137 C 23.144 232.889,23.317 231.761,23.529 231.630 C 23.742 231.499,23.915 230.717,23.915 229.894 C 23.915 229.070,24.066 228.303,24.250 228.190 C 24.434 228.076,24.694 227.241,24.829 226.335 C 25.432 222.261,26.060 219.131,26.326 218.867 C 26.485 218.709,26.615 218.174,26.615 217.679 C 26.615 217.184,26.789 216.779,27.001 216.779 C 27.213 216.779,27.387 216.355,27.387 215.838 C 27.387 215.320,27.560 214.789,27.772 214.658 C 27.985 214.527,28.158 214.006,28.158 213.500 C 28.158 212.995,28.332 212.474,28.544 212.343 C 28.756 212.212,28.930 211.716,28.930 211.240 C 28.930 210.765,29.080 210.211,29.265 210.010 C 29.449 209.808,29.917 208.775,30.305 207.715 C 30.693 206.654,31.323 205.217,31.706 204.521 C 32.088 203.825,32.401 203.017,32.401 202.725 C 32.401 202.235,33.890 199.090,34.330 198.650 C 34.582 198.397,35.933 195.909,37.260 193.250 C 37.843 192.083,38.578 190.823,38.894 190.451 C 39.493 189.744,39.757 189.322,41.150 186.841 C 41.613 186.017,42.438 184.873,42.983 184.298 C 43.527 183.724,43.973 183.005,43.973 182.700 C 43.973 182.396,44.232 182.047,44.549 181.925 C 44.866 181.803,45.447 181.176,45.839 180.532 C 46.231 179.887,47.273 178.589,48.155 177.648 C 49.037 176.707,49.759 175.799,49.759 175.630 C 49.759 175.158,60.300 164.706,60.776 164.706 C 61.007 164.706,61.604 164.272,62.102 163.742 C 62.600 163.211,63.151 162.777,63.326 162.777 C 63.501 162.777,64.382 162.081,65.284 161.231 C 66.186 160.380,67.228 159.587,67.599 159.469 C 67.970 159.351,68.274 159.133,68.274 158.985 C 68.274 158.837,68.968 158.287,69.817 157.763 C 70.665 157.238,71.360 156.677,71.360 156.515 C 71.360 156.352,71.599 156.220,71.891 156.220 C 72.183 156.220,72.654 155.941,72.936 155.601 C 73.218 155.261,73.804 154.819,74.237 154.620 C 75.553 154.015,76.718 153.292,77.463 152.618 C 77.852 152.265,78.347 151.977,78.563 151.977 C 78.778 151.977,79.269 151.630,79.653 151.205 C 80.037 150.781,80.558 150.434,80.810 150.434 C 81.062 150.434,81.583 150.087,81.967 149.662 C 82.351 149.238,82.838 148.891,83.048 148.891 C 83.258 148.891,84.172 148.284,85.078 147.541 C 85.984 146.798,86.892 146.191,87.096 146.191 C 87.299 146.191,87.689 145.922,87.962 145.593 C 88.235 145.265,89.167 144.646,90.034 144.219 C 92.201 143.151,93.223 142.555,94.019 141.897 C 94.391 141.589,95.217 141.083,95.853 140.774 C 96.490 140.465,97.347 139.908,97.758 139.537 C 98.170 139.166,98.674 138.862,98.879 138.862 C 99.084 138.862,99.821 138.428,100.516 137.898 C 101.212 137.367,101.945 136.933,102.145 136.933 C 102.345 136.933,102.732 136.665,103.005 136.336 C 103.278 136.007,104.243 135.400,105.151 134.987 C 106.058 134.574,106.914 134.051,107.054 133.825 C 107.193 133.599,107.681 133.250,108.138 133.048 C 108.594 132.847,109.662 132.250,110.511 131.723 C 111.360 131.195,112.781 130.416,113.670 129.992 C 114.559 129.568,115.388 129.056,115.512 128.855 C 115.636 128.654,117.244 127.743,119.085 126.829 C 123.516 124.631,123.819 124.457,123.819 124.113 C 123.819 123.951,124.166 123.819,124.590 123.819 C 125.014 123.819,125.362 123.645,125.362 123.433 C 125.362 123.221,125.598 123.047,125.886 123.047 C 126.175 123.047,127.051 122.613,127.832 122.083 C 128.614 121.553,129.489 121.119,129.778 121.119 C 130.231 121.119,131.471 120.579,134.325 119.142 C 134.693 118.956,135.854 118.804,136.905 118.804 C 137.957 118.804,138.924 118.631,139.055 118.419 C 139.186 118.206,139.446 118.033,139.634 118.033 C 139.821 118.033,140.081 118.206,140.212 118.419 M259.016 123.433 C 259.148 123.645,259.678 123.819,260.196 123.819 C 260.714 123.819,261.138 123.950,261.138 124.110 C 261.138 124.271,261.702 124.641,262.392 124.933 C 264.586 125.862,270.395 132.067,270.395 133.481 C 270.395 133.683,270.569 133.848,270.781 133.848 C 270.993 133.848,271.167 134.195,271.167 134.619 C 271.167 135.043,271.340 135.391,271.553 135.391 C 271.765 135.391,271.938 135.988,271.938 136.718 C 271.938 137.448,272.112 138.152,272.324 138.284 C 272.537 138.415,272.710 140.144,272.710 142.141 C 272.710 144.137,272.537 145.867,272.324 145.998 C 272.112 146.129,271.938 146.559,271.938 146.954 C 271.938 148.970,267.640 154.831,264.540 157.042 C 262.916 158.201,255.355 162.006,254.677 162.006 C 254.397 162.006,253.783 162.241,253.313 162.528 C 252.843 162.815,251.418 163.277,250.145 163.554 C 248.872 163.832,247.665 164.204,247.464 164.382 C 247.262 164.560,246.622 164.706,246.040 164.706 C 245.459 164.706,244.876 164.879,244.744 165.092 C 244.613 165.304,243.312 165.477,241.851 165.477 C 240.391 165.477,239.090 165.651,238.959 165.863 C 238.827 166.075,237.949 166.249,237.007 166.249 C 236.065 166.249,235.294 166.075,235.294 165.863 C 235.294 165.651,234.974 165.477,234.582 165.477 C 233.237 165.477,231.625 164.347,228.553 161.250 C 226.861 159.544,225.285 158.149,225.052 158.149 C 224.819 158.149,224.221 157.715,223.722 157.184 C 223.224 156.654,222.621 156.220,222.383 156.220 C 222.145 156.220,221.272 155.526,220.444 154.677 C 219.615 153.828,218.775 153.134,218.577 153.134 C 218.380 153.134,217.816 152.700,217.324 152.170 C 216.832 151.639,216.270 151.205,216.073 151.205 C 215.877 151.205,215.478 150.919,215.188 150.568 C 214.897 150.218,213.790 149.282,212.729 148.489 C 211.668 147.696,210.417 146.681,209.949 146.233 C 209.480 145.786,208.951 145.419,208.773 145.419 C 208.595 145.419,207.772 144.725,206.943 143.877 C 206.114 143.028,205.250 142.334,205.022 142.334 C 204.794 142.334,203.431 141.148,201.993 139.699 C 199.102 136.785,199.090 136.951,202.314 135.371 C 203.375 134.851,204.301 134.296,204.372 134.137 C 204.442 133.978,204.891 133.848,205.368 133.848 C 205.845 133.848,206.366 133.718,206.525 133.559 C 206.836 133.248,210.006 132.378,212.058 132.041 C 212.749 131.927,213.410 131.679,213.527 131.491 C 213.643 131.302,214.152 131.148,214.658 131.148 C 215.163 131.148,215.684 130.974,215.815 130.762 C 215.946 130.550,216.640 130.376,217.358 130.376 C 218.075 130.376,218.770 130.203,218.901 129.990 C 219.032 129.778,219.639 129.605,220.251 129.605 C 220.862 129.605,221.470 129.431,221.601 129.219 C 221.732 129.007,222.253 128.833,222.758 128.833 C 223.263 128.833,223.770 128.682,223.884 128.497 C 223.999 128.313,224.920 128.067,225.932 127.952 C 226.944 127.837,228.987 127.450,230.473 127.093 C 231.958 126.735,233.738 126.354,234.430 126.245 C 235.121 126.137,235.782 125.893,235.899 125.705 C 236.016 125.516,236.698 125.362,237.416 125.362 C 238.133 125.362,238.827 125.188,238.959 124.976 C 239.090 124.764,240.218 124.590,241.466 124.590 C 242.714 124.590,243.842 124.417,243.973 124.204 C 244.104 123.992,245.232 123.819,246.480 123.819 C 247.728 123.819,248.856 123.645,248.987 123.433 C 249.126 123.209,251.234 123.047,254.002 123.047 C 256.770 123.047,258.878 123.209,259.016 123.433 M339.055 128.658 C 328.245 129.533,326.252 130.589,327.261 134.906 C 328.668 140.923,333.726 141.948,362.006 141.948 C 386.546 141.948,394.085 140.937,395.905 137.401 C 398.069 133.197,397.007 130.411,392.901 129.523 C 386.554 128.150,352.168 127.598,339.055 128.658 M260.109 176.638 C 260.336 176.864,260.800 177.049,261.141 177.049 C 263.410 177.049,272.710 184.033,272.710 185.738 C 272.710 185.966,272.911 186.354,273.157 186.600 C 274.803 188.245,276.319 198.814,275.024 199.614 C 274.812 199.745,274.638 200.353,274.638 200.964 C 274.638 201.576,274.478 202.175,274.282 202.296 C 274.087 202.417,273.818 203.010,273.685 203.615 C 273.552 204.219,272.931 205.204,272.305 205.804 C 271.679 206.404,271.167 207.068,271.167 207.280 C 271.167 207.835,269.573 209.450,269.025 209.450 C 268.770 209.450,268.341 209.715,268.072 210.039 C 267.330 210.934,264.260 212.922,263.621 212.922 C 263.310 212.922,262.711 213.095,262.290 213.308 C 261.868 213.520,261.179 213.867,260.757 214.079 C 260.336 214.291,259.652 214.465,259.237 214.465 C 258.823 214.465,258.391 214.615,258.277 214.799 C 258.164 214.982,257.451 215.233,256.693 215.356 C 255.026 215.626,250.019 217.093,249.089 217.583 C 248.721 217.777,248.080 217.936,247.665 217.936 C 247.251 217.936,246.804 218.110,246.673 218.322 C 246.542 218.534,245.934 218.708,245.323 218.708 C 244.712 218.708,244.104 218.881,243.973 219.094 C 243.842 219.306,243.148 219.479,242.430 219.479 C 241.713 219.479,241.018 219.653,240.887 219.865 C 240.756 220.077,240.235 220.251,239.730 220.251 C 239.225 220.251,238.704 220.424,238.573 220.636 C 238.442 220.849,237.979 221.022,237.544 221.022 C 236.462 221.022,231.398 222.169,230.574 222.600 C 230.206 222.793,229.565 222.951,229.150 222.951 C 228.736 222.951,228.289 223.124,228.158 223.337 C 228.027 223.549,227.333 223.722,226.615 223.722 C 225.898 223.722,225.203 223.896,225.072 224.108 C 224.941 224.320,224.334 224.494,223.722 224.494 C 223.111 224.494,222.503 224.667,222.372 224.879 C 222.241 225.092,221.621 225.265,220.994 225.265 C 220.367 225.265,219.553 225.419,219.185 225.608 C 218.816 225.796,217.473 226.159,216.201 226.414 C 214.928 226.669,213.192 227.048,212.343 227.257 C 211.495 227.465,210.235 227.729,209.543 227.843 C 208.852 227.957,208.191 228.205,208.074 228.394 C 207.957 228.582,207.275 228.737,206.557 228.737 C 205.840 228.737,205.146 228.910,205.014 229.122 C 204.883 229.335,204.179 229.508,203.449 229.508 C 202.719 229.508,202.122 229.682,202.122 229.894 C 202.122 230.106,201.524 230.280,200.794 230.280 C 200.064 230.280,199.360 230.453,199.229 230.665 C 199.097 230.878,198.254 231.051,197.354 231.051 C 196.455 231.051,195.554 231.204,195.352 231.390 C 195.014 231.702,191.367 232.402,187.657 232.866 C 186.808 232.972,185.949 233.215,185.747 233.405 C 185.546 233.595,184.732 233.751,183.938 233.751 C 183.144 233.751,182.388 233.925,182.257 234.137 C 182.125 234.349,181.258 234.523,180.328 234.523 C 179.398 234.523,178.530 234.349,178.399 234.137 C 178.268 233.925,177.648 233.751,177.021 233.751 C 176.394 233.751,175.580 233.592,175.212 233.398 C 174.843 233.204,173.934 232.757,173.192 232.405 C 172.449 232.054,171.435 231.538,170.938 231.259 C 169.700 230.564,167.020 227.908,167.020 227.376 C 167.020 227.137,166.571 226.522,166.023 226.007 C 164.987 225.036,163.988 223.093,163.163 220.444 C 162.899 219.595,162.530 218.599,162.344 218.231 C 161.879 217.310,161.916 212.637,162.392 212.343 C 162.604 212.212,162.777 211.620,162.777 211.027 C 162.777 210.434,163.211 208.753,163.742 207.291 C 164.272 205.828,164.706 204.175,164.706 203.617 C 164.706 201.413,162.863 201.507,187.154 202.475 C 198.195 202.914,210.483 202.329,211.553 201.313 C 211.754 201.121,212.395 200.964,212.976 200.964 C 213.558 200.964,214.141 200.791,214.272 200.579 C 214.403 200.366,214.842 200.193,215.247 200.193 C 215.653 200.193,216.602 199.846,217.358 199.421 C 218.113 198.997,219.046 198.650,219.431 198.650 C 219.816 198.650,220.445 198.303,220.829 197.878 C 221.213 197.454,221.735 197.107,221.989 197.107 C 222.629 197.107,226.318 193.012,227.327 191.182 C 228.679 188.729,228.965 188.277,229.639 187.533 C 229.991 187.143,230.280 186.659,230.280 186.457 C 230.280 185.966,234.571 181.739,235.728 181.090 C 236.232 180.808,237.252 180.273,237.994 179.902 C 238.737 179.530,239.805 178.910,240.368 178.524 C 240.931 178.137,241.746 177.821,242.178 177.821 C 242.610 177.821,243.070 177.647,243.202 177.435 C 243.333 177.223,243.829 177.049,244.304 177.049 C 244.780 177.049,245.334 176.886,245.535 176.687 C 246.360 175.871,259.299 175.827,260.109 176.638 M309.050 178.775 C 307.381 180.180,305.630 183.696,306.094 184.710 C 308.415 189.773,339.260 220.444,350.241 228.607 C 354.412 231.708,355.699 231.856,358.051 229.503 C 361.605 225.949,357.276 219.966,335.010 197.659 C 315.683 178.296,312.431 175.931,309.050 178.775 M268.910 229.797 C 269.176 230.063,269.753 230.280,270.194 230.280 C 270.636 230.280,271.247 230.627,271.553 231.051 C 271.858 231.475,272.293 231.823,272.519 231.823 C 273.122 231.823,276.711 235.684,277.359 237.030 C 277.665 237.666,278.009 238.274,278.123 238.380 C 280.595 240.677,281.211 254.333,278.946 256.599 C 278.698 256.846,278.496 257.225,278.496 257.440 C 278.496 257.988,275.346 261.138,274.798 261.138 C 274.550 261.138,274.139 261.389,273.885 261.695 C 273.331 262.363,265.913 266.152,265.160 266.152 C 264.870 266.152,264.015 266.500,263.259 266.924 C 262.504 267.348,261.544 267.695,261.126 267.695 C 260.708 267.695,260.366 267.869,260.366 268.081 C 260.366 268.293,260.017 268.467,259.590 268.467 C 259.163 268.467,258.512 268.624,258.143 268.816 C 257.775 269.008,256.345 269.472,254.966 269.846 C 253.587 270.220,252.294 270.670,252.093 270.846 C 251.891 271.023,251.337 271.167,250.862 271.167 C 250.386 271.167,249.890 271.340,249.759 271.553 C 249.628 271.765,248.933 271.938,248.216 271.938 C 247.499 271.938,246.804 272.112,246.673 272.324 C 246.542 272.536,246.011 272.710,245.493 272.710 C 244.975 272.710,244.552 272.883,244.552 273.095 C 244.552 273.308,244.029 273.481,243.389 273.481 C 242.750 273.481,241.925 273.648,241.557 273.851 C 241.189 274.055,240.106 274.387,239.151 274.590 C 236.708 275.108,232.619 276.132,231.217 276.577 C 230.565 276.784,229.664 276.953,229.214 276.953 C 228.765 276.953,228.289 277.126,228.158 277.338 C 228.027 277.551,227.506 277.724,227.001 277.724 C 226.496 277.724,225.975 277.898,225.844 278.110 C 225.713 278.322,225.008 278.496,224.278 278.496 C 223.548 278.496,222.951 278.669,222.951 278.881 C 222.951 279.094,222.354 279.267,221.624 279.267 C 220.894 279.267,220.202 279.420,220.086 279.607 C 219.970 279.794,218.747 280.068,217.367 280.216 C 215.987 280.364,214.760 280.645,214.639 280.840 C 214.518 281.036,213.832 281.196,213.115 281.196 C 212.397 281.196,211.703 281.369,211.572 281.581 C 211.441 281.794,210.660 281.967,209.836 281.967 C 209.013 281.967,208.231 282.141,208.100 282.353 C 207.969 282.565,207.275 282.739,206.557 282.739 C 205.840 282.739,205.146 282.912,205.014 283.124 C 204.883 283.337,203.929 283.510,202.893 283.510 C 201.857 283.510,200.903 283.684,200.771 283.896 C 200.469 284.385,190.018 284.414,189.098 283.928 C 188.730 283.734,187.782 283.294,186.992 282.951 C 185.168 282.158,179.848 276.858,177.748 273.742 C 176.865 272.432,176.006 271.266,175.838 271.152 C 174.633 270.333,174.537 263.351,175.699 261.022 C 176.017 260.384,176.278 259.542,176.278 259.150 C 176.278 258.758,176.419 258.438,176.591 258.438 C 176.764 258.438,177.145 257.827,177.438 257.079 C 177.731 256.332,178.284 255.438,178.667 255.091 C 179.050 254.744,179.364 254.265,179.364 254.025 C 179.364 252.596,186.002 247.637,187.915 247.637 C 188.303 247.637,188.621 247.464,188.621 247.252 C 188.621 247.040,188.971 246.866,189.398 246.866 C 189.825 246.866,190.476 246.709,190.844 246.516 C 191.213 246.324,192.642 245.861,194.021 245.487 C 195.400 245.113,196.693 244.663,196.895 244.486 C 197.096 244.310,197.650 244.166,198.126 244.166 C 198.601 244.166,199.097 243.992,199.229 243.780 C 199.360 243.568,199.980 243.394,200.607 243.394 C 201.233 243.394,202.091 243.221,202.512 243.009 C 202.934 242.797,203.623 242.449,204.045 242.237 C 204.466 242.025,205.324 241.851,205.951 241.851 C 206.578 241.851,207.198 241.678,207.329 241.466 C 207.460 241.254,207.981 241.080,208.486 241.080 C 208.991 241.080,209.498 240.929,209.612 240.745 C 209.726 240.561,210.676 240.297,211.723 240.158 C 212.771 240.019,214.641 239.566,215.878 239.152 C 217.116 238.738,218.510 238.395,218.974 238.389 C 219.439 238.384,219.927 238.206,220.058 237.994 C 220.189 237.782,220.710 237.608,221.215 237.608 C 221.720 237.608,222.241 237.435,222.372 237.223 C 222.503 237.011,223.208 236.837,223.938 236.837 C 224.668 236.837,225.265 236.663,225.265 236.451 C 225.265 236.239,225.689 236.066,226.207 236.066 C 226.725 236.066,227.256 235.892,227.387 235.680 C 227.518 235.468,228.092 235.289,228.663 235.283 C 229.234 235.277,230.916 234.916,232.401 234.481 C 234.872 233.757,236.811 233.322,240.216 232.728 C 240.907 232.608,241.568 232.354,241.685 232.166 C 241.802 231.977,242.484 231.823,243.202 231.823 C 243.919 231.823,244.613 231.649,244.744 231.437 C 244.876 231.225,245.657 231.051,246.480 231.051 C 247.304 231.051,248.085 230.878,248.216 230.665 C 248.347 230.453,249.017 230.280,249.705 230.280 C 250.392 230.280,251.120 230.116,251.321 229.915 C 252.164 229.077,268.084 228.970,268.910 229.797 M269.316 282.117 C 276.597 284.026,283.515 291.234,284.171 297.596 C 284.455 300.346,283.581 306.484,282.673 308.112 C 282.285 308.808,281.967 309.632,281.967 309.944 C 281.967 310.600,281.715 310.922,278.342 314.571 C 276.226 316.859,275.489 317.390,273.598 317.988 C 272.367 318.377,270.692 319.023,269.877 319.425 C 269.061 319.826,268.063 320.154,267.659 320.154 C 267.255 320.154,266.924 320.328,266.924 320.540 C 266.924 320.752,266.500 320.926,265.982 320.926 C 265.464 320.926,264.933 321.099,264.802 321.311 C 264.671 321.524,264.225 321.697,263.810 321.697 C 263.395 321.697,262.755 321.852,262.386 322.041 C 261.783 322.351,260.363 322.770,255.545 324.059 C 254.696 324.287,253.701 324.629,253.332 324.821 C 252.964 325.012,252.236 325.169,251.716 325.169 C 251.195 325.169,250.661 325.342,250.530 325.554 C 250.399 325.767,249.705 325.940,248.987 325.940 C 248.270 325.940,247.576 326.114,247.445 326.326 C 247.313 326.538,246.793 326.712,246.287 326.712 C 245.782 326.712,245.261 326.885,245.130 327.097 C 244.999 327.310,244.416 327.483,243.835 327.483 C 243.253 327.483,242.612 327.637,242.411 327.826 C 242.082 328.133,239.701 328.689,236.158 329.285 C 235.467 329.402,234.806 329.651,234.689 329.840 C 234.573 330.029,233.890 330.183,233.173 330.183 C 232.455 330.183,231.761 330.357,231.630 330.569 C 231.499 330.781,230.891 330.955,230.280 330.955 C 229.668 330.955,229.061 331.128,228.930 331.340 C 228.798 331.553,228.104 331.726,227.387 331.726 C 226.669 331.726,225.975 331.900,225.844 332.112 C 225.713 332.324,225.093 332.498,224.466 332.498 C 223.839 332.498,223.025 332.658,222.656 332.855 C 222.288 333.051,220.511 333.417,218.708 333.669 C 216.905 333.921,214.561 334.285,213.500 334.478 C 207.382 335.595,202.075 335.034,199.777 333.029 C 199.442 332.737,198.950 332.498,198.683 332.498 C 198.112 332.498,192.093 326.440,192.093 325.866 C 192.093 325.650,191.659 324.957,191.128 324.327 C 190.598 323.697,190.164 322.771,190.164 322.269 C 190.164 321.767,189.990 321.250,189.778 321.119 C 189.566 320.987,189.392 320.293,189.392 319.576 C 189.392 318.858,189.219 318.164,189.007 318.033 C 188.795 317.902,188.621 316.600,188.621 315.140 C 188.621 313.680,188.795 312.378,189.007 312.247 C 189.219 312.116,189.395 311.628,189.398 311.163 C 189.406 310.067,190.293 307.527,190.871 306.950 C 191.118 306.702,191.321 306.313,191.321 306.085 C 191.321 305.286,196.908 300.096,197.768 300.096 C 198.228 300.096,198.700 299.942,198.816 299.753 C 198.933 299.565,199.496 299.293,200.067 299.150 C 200.638 299.006,201.800 298.553,202.650 298.143 C 203.500 297.732,204.499 297.396,204.871 297.396 C 205.243 297.396,205.655 297.223,205.786 297.011 C 205.917 296.798,206.448 296.625,206.966 296.625 C 207.484 296.625,207.907 296.451,207.907 296.239 C 207.907 296.027,208.255 295.853,208.679 295.853 C 209.103 295.853,209.450 295.680,209.450 295.468 C 209.450 295.256,209.973 295.082,210.613 295.082 C 211.252 295.082,212.077 294.925,212.445 294.732 C 212.813 294.540,214.243 294.077,215.622 293.703 C 217.001 293.329,218.294 292.879,218.496 292.702 C 218.697 292.526,219.425 292.382,220.112 292.382 C 220.800 292.382,221.448 292.243,221.554 292.073 C 221.659 291.902,222.635 291.521,223.722 291.225 C 224.810 290.929,225.786 290.547,225.891 290.377 C 225.996 290.207,226.669 290.068,227.387 290.068 C 228.104 290.068,228.798 289.894,228.930 289.682 C 229.061 289.470,229.507 289.296,229.922 289.296 C 230.337 289.296,230.977 289.130,231.346 288.928 C 231.941 288.601,234.003 288.150,237.901 287.494 C 238.593 287.377,239.254 287.128,239.371 286.939 C 239.487 286.750,240.170 286.596,240.887 286.596 C 241.605 286.596,242.299 286.422,242.430 286.210 C 242.561 285.998,243.181 285.824,243.808 285.824 C 244.435 285.824,245.293 285.651,245.714 285.439 C 246.135 285.227,246.825 284.879,247.246 284.667 C 247.668 284.455,248.526 284.282,249.152 284.282 C 249.779 284.282,250.399 284.108,250.530 283.896 C 250.661 283.684,251.323 283.502,252.000 283.491 C 253.655 283.466,261.484 282.135,261.793 281.827 C 262.240 281.380,267.239 281.573,269.316 282.117 " stroke="none" fill="black" fill-rule="evenodd"/></g></svg>